<svg width="72" height="32" viewBox="0 0 72 32" fill="none" xmlns="http://www.w3.org/2000/svg">
<path d="M64.1434 31.8937C58.558 32.4974 53.8719 27.7192 54.4638 22.0225C54.8953 17.8718 58.1666 14.5345 62.2363 14.0944C67.8217 13.4907 72.5078 18.2696 71.9159 23.9663C71.4844 28.117 68.2131 31.4543 64.1434 31.8944V31.8937ZM63.7391 18.7269C60.9839 18.3699 58.6564 20.7438 59.0063 23.5539C59.245 25.47 60.7614 27.0165 62.64 27.26C65.3965 27.6176 67.7247 25.2423 67.3734 22.4316C67.134 20.5162 65.6177 18.9697 63.7391 18.7262V18.7269Z" fill="#36C3A0"/>
<path d="M32.2156 12.517C33.7065 12.517 34.9151 11.2843 34.9151 9.7637C34.9151 8.24307 33.7065 7.01038 32.2156 7.01038C30.7247 7.01038 29.5161 8.24307 29.5161 9.7637C29.5161 11.2843 30.7247 12.517 32.2156 12.517Z" fill="#36C3A0"/>
<path d="M34.4946 14.2634H29.9366V31.7486H34.4946V14.2634Z" fill="#36C3A0"/>
<path d="M49.4776 14.2634L45.2824 26.0018L41.0873 14.2634H36.2355L42.4846 31.748H48.0803L54.3293 14.2634H49.4776Z" fill="#36C3A0"/>
<path d="M27.2701 31.7484H9.75332L9.82641 29.352C9.87752 27.6808 10.0218 24.7625 10.4313 21.3302C10.1479 21.3124 9.86458 21.2866 9.58124 21.2523C5.88809 20.8063 2.48539 18.9965 0 16.1541L3.40205 13.0597C5.45984 15.4126 8.24604 16.6516 11.1137 16.711C11.9094 12.2568 12.9794 8.77239 14.2978 6.34629C16.4668 2.35322 19.4723 0.0406435 22.5419 -0.000263656C24.6262 -0.0180781 26.4498 1.0244 27.5243 2.88567C29.9191 7.0364 26.8878 13.6772 20.4731 18.3327C18.8138 19.5369 16.9837 20.396 15.0812 20.8842C14.8075 22.9606 14.6109 25.0759 14.4906 27.0995H27.2701V31.7484ZM22.6202 4.64864C22.6137 4.64864 22.6072 4.64864 22.6008 4.64864C21.5929 4.66184 19.8579 5.70431 18.2846 8.59946C17.3421 10.3347 16.5703 12.8268 15.9674 15.6533C16.6066 15.3505 17.2308 14.981 17.8305 14.5456C22.9824 10.8071 24.3222 6.50332 23.5963 5.24444C23.3622 4.83866 23.0516 4.64864 22.6202 4.64864Z" fill="#36C3A0"/>
</svg>
